<svg xmlns="http://www.w3.org/2000/svg" viewBox="0 0 454.18 536.72"><defs><style>.cls-1{fill:#ef476f;}.cls-2{fill:#06d6a0;}.cls-3{fill:#ffd166;}.cls-4{fill:#26547c;}</style></defs><g id="Layer_2" data-name="Layer 2"><g id="Layer_1-2" data-name="Layer 1"><path class="cls-1" d="M379.82,363.39,74.36,404.11V323.18l243.75-32.5c9.1-.62,19.1,2.46,24.89,10.76Z"/><path class="cls-2" d="M454.18,71V414.51l-36.82-42.05c-6.84-7.21-15.7-11.56-24.89-10.76l-12.65,1.69V80.63Z"/><path class="cls-3" d="M379.82,0V80.63L127.08,113.29a32.72,32.72,0,0,0-3.56.63C96.38,120.48,74.36,141,74.36,173V323.18L0,333.09V102C0,69.27,22.84,47.17,50.94,42.5Z"/><path class="cls-4" d="M36.52,514.1h-20v20.81H3.19V464.2c11.11,0,22.22-.1,33.33-.1C71.07,464.1,71.17,514.1,36.52,514.1Zm-20-12.22h20c17.07,0,17-25.05,0-25.05h-20Z"/><path class="cls-4" d="M141,500c-.2,18.28-11.41,36.56-36.26,36.56s-36.37-17.88-36.37-36.46,11.92-37.28,36.37-37.28S141.16,481.47,141,500Zm-59.49.3c.3,11.62,6.56,24,23.23,24s22.93-12.53,23.13-24.14c.2-11.92-6.46-25.25-23.13-25.25S81.16,488.34,81.47,500.26Z"/><path class="cls-4" d="M196.41,481.27c-2.42-4-9.09-7.88-16.77-7.88-9.89,0-14.64,4.14-14.64,9.39,0,6.17,7.27,7.88,15.76,8.89,14.74,1.82,28.48,5.66,28.48,22.53,0,15.76-13.94,22.52-29.7,22.52-14.44,0-25.55-4.44-30.81-17.37l11.12-5.76c3.13,7.78,11.31,11.22,19.9,11.22,8.38,0,16.26-2.94,16.26-10.61,0-6.67-7-9.4-16.37-10.41-14.44-1.71-27.77-5.55-27.77-21.41,0-14.55,14.34-20.51,27.37-20.61,11,0,22.43,3.13,27.78,14Z"/><path class="cls-4" d="M237.82,476.32H215.4V464.2h58.18v12.12H251.16v58.59H237.82Z"/><path class="cls-4" d="M281.76,534.91V464.2H295v70.71Z"/><path class="cls-4" d="M345.9,535.21H332.06l-29.39-71h14.95l21.31,55.05,21.42-55.05H375.3Z"/><path class="cls-4" d="M433.68,521.57h-37l-6.06,13.34H376.2l31.72-70.71h14.55l31.71,70.71H439.64Zm-18.49-42.52-13.13,30.1h26.26Z"/></g></g></svg>